<svg xmlns="http://www.w3.org/2000/svg" viewBox="0 0 500 500"><g id="freepik--background-simple--inject-5"><path d="M156.87,466.82s-89.36-33.92-130.73-139S133.7,149.1,132,133.38s-105.9-24-43.85-74.47S367.85,2.65,447.29,111,444,255,435.7,274s73.64,26.47,16.55,124.11S222.23,493.3,156.87,466.82Z" style="fill:#B0BEC5"></path><path d="M156.87,466.82s-89.36-33.92-130.73-139S133.7,149.1,132,133.38s-105.9-24-43.85-74.47S367.85,2.65,447.29,111,444,255,435.7,274s73.64,26.47,16.55,124.11S222.23,493.3,156.87,466.82Z" style="fill:#fff;opacity:0.7000000000000001"></path></g><g id="freepik--Shadow--inject-5"><ellipse cx="322.81" cy="404.11" rx="144.41" ry="18.25" style="opacity:0.30000000000000004"></ellipse></g><g id="freepik--Rocks--inject-5"><ellipse cx="160.03" cy="434.06" rx="17.37" ry="5.67" style="fill:none;stroke:#263238;stroke-miterlimit:10"></ellipse><ellipse cx="309.42" cy="450.13" rx="31.47" ry="10.28" style="fill:none;stroke:#263238;stroke-miterlimit:10"></ellipse><path d="M62.42,422.68c0,2.84-5.43,5.13-12.13,5.13s-12.12-2.29-12.12-5.13,5.43-5.12,12.12-5.12S62.42,419.85,62.42,422.68Z" style="fill:none;stroke:#263238;stroke-miterlimit:10"></path><path d="M112.44,423.14c0,1.88-2.88,3.4-6.42,3.4s-6.42-1.52-6.42-3.4,2.87-3.4,6.42-3.4S112.44,421.26,112.44,423.14Z" style="fill:none;stroke:#263238;stroke-miterlimit:10"></path><ellipse cx="209.13" cy="421.22" rx="6.8" ry="4.91" style="fill:none;stroke:#263238;stroke-miterlimit:10"></ellipse><ellipse cx="436.22" cy="390.43" rx="6.8" ry="2.45" style="fill:none;stroke:#263238;stroke-miterlimit:10"></ellipse><path d="M400.29,363.66c0,1.36-1.52,2.46-3.4,2.46s-3.4-1.1-3.4-2.46,1.52-2.45,3.4-2.45S400.29,362.31,400.29,363.66Z" style="fill:none;stroke:#263238;stroke-miterlimit:10"></path><path d="M158.51,361.51c0,1.36-1.53,2.46-3.4,2.46s-3.4-1.1-3.4-2.46,1.52-2.45,3.4-2.45S158.51,360.16,158.51,361.51Z" style="fill:none;stroke:#263238;stroke-miterlimit:10"></path><path d="M234.81,389.11c0,1.25-1.86,2.27-4.15,2.27s-4.16-1-4.16-2.27,1.86-2.26,4.16-2.26S234.81,387.86,234.81,389.11Z" style="fill:none;stroke:#263238;stroke-miterlimit:10"></path><path d="M432,446.52c0,3.76-6.43,6.8-14.36,6.8s-14.35-3-14.35-6.8,6.43-6.8,14.35-6.8S432,442.77,432,446.52Z" style="fill:none;stroke:#263238;stroke-miterlimit:10"></path></g><g id="freepik--plants-2--inject-5"><g style="opacity:0.30000000000000004"><path d="M361.06,202.34a107.35,107.35,0,0,1-16,22.75c-.41.45-.82.91-1.25,1.37-3.64,4-7.64,8-11.89,12.1-3.2,3.08-6.53,6.18-10,9.27q-2.59,2.34-5.24,4.68c-26,23-55.31,45.1-66.1,56.43-15.1,15.86-15.86,20.39-15.86,20.39s70.25-34,67.23-18.88c-.25,1.23-.53,2.43-.84,3.61a72.2,72.2,0,0,1-2.58,8,82.42,82.42,0,0,1-7.91,15.58s6.93-2.47,14.82-4.9c4.26-1.32,8.81-2.62,12.68-3.52,1.09-.25,2.14-.48,3.1-.65,5.34-1,8.42-.74,5.66,2.27l-8.31,9.07s15.86,2.26,23.41,2.26l.92,0H115.35l12.15-6.07s-27.95-34.75-14.36-34c13.39.74,31.9,28.57,32.48,29.44-.27-2.53-21.69-195.79,9.83-219.8C166.92,103,157,252.28,157,252.28S218.14,9.81,234.76,34.73c12.66,19-21.13,142.25-38,199.94,16.76-52.22,55.65-156,102.92-166.7,63.46-14.35-64.2,149.57-76.29,184.31s-12.09,55.15-12.09,55.15,27.95-88.38,99.71-121.62c25.28-11.71,40.44-14.14,48.24-11,4.3,1.72,6.37,5.12,6.68,9.58C366.31,189.33,364.46,195.61,361.06,202.34Z" style="fill:none;stroke:#000;stroke-miterlimit:10"></path><path d="M146,232.4c-.85-28,.34-58.6,5.71-88.14" style="fill:none;stroke:#000;stroke-miterlimit:10"></path><path d="M156.38,327.43A629,629,0,0,1,146.2,239" style="fill:none;stroke:#000;stroke-miterlimit:10"></path><path d="M179.73,240.56c-4,22.19-7.25,44.92-9.18,66.87" style="fill:none;stroke:#000;stroke-miterlimit:10"></path><path d="M218.9,83.08s-22.79,70.1-37.65,149.25" style="fill:none;stroke:#000;stroke-miterlimit:10"></path><path d="M197.64,281.42a266.05,266.05,0,0,0-9,42.63" style="fill:none;stroke:#000;stroke-miterlimit:10"></path><path d="M270.5,126.67c-20.12,32.66-53.74,92-71.4,149.84" style="fill:none;stroke:#000;stroke-miterlimit:10"></path><path d="M286.88,101.21s-4.53,6.58-11.67,17.9" style="fill:none;stroke:#000;stroke-miterlimit:10"></path><path d="M340.51,197.9q-4,2.34-7.89,4.8" style="fill:none;stroke:#000;stroke-miterlimit:10"></path><path d="M325.3,207.46q-3.3,2.22-6.49,4.5" style="fill:none;stroke:#000;stroke-miterlimit:10"></path><path d="M244.37,286.81c15.79-21.76,38.53-48,68.78-70.7" style="fill:none;stroke:#000;stroke-miterlimit:10"></path><path d="M216.63,332.35s8-17.62,24.87-41.52" style="fill:none;stroke:#000;stroke-miterlimit:10"></path><path d="M318.16,329.22c-3.87.9-8.42,2.2-12.68,3.52a92.8,92.8,0,0,1-6.91-10.68,72.2,72.2,0,0,0,2.58-8C307.14,316,314,323.85,318.16,329.22Z" style="fill:none;stroke:#000;stroke-miterlimit:10"></path><path d="M459.88,341.79a19.06,19.06,0,0,1,3.52.41H342.94l-.92,0c-7.55,0-23.41-2.26-23.41-2.26l8.31-9.07c2.76-3-.32-3.27-5.66-2.27-1.28-12.78-4.17-44.82-4.54-76.06q2.64-2.34,5.24-4.68c3.42-3.09,6.75-6.19,10-9.27-.83,21.23-2.09,40.06-2.09,40.06s5.93-23.51,14-52.16c.43-.46.84-.92,1.25-1.37a107.35,107.35,0,0,0,16-22.75c3.4-6.73,5.25-13,4.91-18-.31-4.46-2.38-7.86-6.68-9.58,10.25-31.55,20.39-56.28,25.21-49.06,8.9,13.35-14.86,100-26.69,140.54,11.77-36.68,39.11-109.66,72.34-117.18C474.74,139,385,254.2,376.54,278.62s-8.5,38.75-8.5,38.75,19.65-62.11,70.07-85.47,43.53,5.84,23.89,27.6-55.74,47.78-66.35,58.93-11.15,14.33-11.15,14.33,49.37-23.89,47.24-13.27a57.93,57.93,0,0,1-7.95,19.1c.75-.26,31.24-11.06,25.47-4.77l-5.84,6.37S454.57,341.79,459.88,341.79Z" style="fill:none;stroke:#000;stroke-miterlimit:10"></path><path d="M322.1,264.64c-.17-5.48-.22-11.1-.14-16.81" style="fill:none;stroke:#000;stroke-miterlimit:10"></path><path d="M329.42,331.42a442.59,442.59,0,0,1-7.16-62.13" style="fill:none;stroke:#000;stroke-miterlimit:10"></path><path d="M345.83,270.38c-2.79,15.59-5.1,31.56-6.45,47" style="fill:none;stroke:#000;stroke-miterlimit:10"></path><path d="M361.06,202.34c-4.66,17.71-9.88,39.45-14.17,62.25" style="fill:none;stroke:#000;stroke-miterlimit:10"></path><path d="M373.35,159.71s-3.06,9.41-7.38,24.66" style="fill:none;stroke:#000;stroke-miterlimit:10"></path><path d="M358.41,299.09a187.14,187.14,0,0,0-6.29,30" style="fill:none;stroke:#000;stroke-miterlimit:10"></path><path d="M409.62,190.34c-14.14,22.95-37.77,64.67-50.18,105.3" style="fill:none;stroke:#000;stroke-miterlimit:10"></path><path d="M421.13,172.45s-3.19,4.63-8.2,12.58" style="fill:none;stroke:#000;stroke-miterlimit:10"></path><path d="M443.57,250.28q7.23-5.17,15.25-9.89" style="fill:none;stroke:#000;stroke-miterlimit:10"></path><path d="M391.25,302.88a235.22,235.22,0,0,1,48.34-49.68" style="fill:none;stroke:#000;stroke-miterlimit:10"></path><path d="M371.76,334.88s5.64-12.38,17.47-29.18" style="fill:none;stroke:#000;stroke-miterlimit:10"></path></g></g><g id="freepik--plant-1--inject-5"><line x1="53.67" y1="131.72" x2="80.49" y2="388.68" style="fill:none;stroke:#263238;stroke-linecap:round;stroke-linejoin:round;stroke-width:2px"></line><line x1="73.38" y1="325.46" x2="63.53" y2="317.66" style="fill:none;stroke:#263238;stroke-linecap:round;stroke-linejoin:round;stroke-width:2px"></line><path d="M67.05,321.33a13.11,13.11,0,0,0-4.61-9.84c-3-2.66-18.64-9.25-20.13-3.73C40.69,313.76,56.73,325.55,67.05,321.33Z" style="fill:#B0BEC5;stroke:#263238;stroke-linecap:round;stroke-linejoin:round"></path><line x1="67.05" y1="321.33" x2="52.14" y2="312.03" style="fill:none;stroke:#263238;stroke-linecap:round;stroke-linejoin:round;stroke-width:0.5px"></line><line x1="76.67" y1="353.97" x2="66.44" y2="345.53" style="fill:none;stroke:#263238;stroke-linecap:round;stroke-linejoin:round;stroke-width:2px"></line><path d="M70,349.2a13.08,13.08,0,0,0-4.61-9.83c-3-2.66-18.64-9.25-20.13-3.73C43.6,341.64,59.64,353.42,70,349.2Z" style="fill:#B0BEC5;stroke:#263238;stroke-linecap:round;stroke-linejoin:round"></path><line x1="69.96" y1="349.2" x2="55.05" y2="339.91" style="fill:none;stroke:#263238;stroke-linecap:round;stroke-linejoin:round;stroke-width:0.5px"></line><line x1="66.79" y1="257.28" x2="56.43" y2="249.64" style="fill:none;stroke:#263238;stroke-linecap:round;stroke-linejoin:round;stroke-width:2px"></line><path d="M60,253.31a13.14,13.14,0,0,0-4.62-9.84c-3-2.65-18.64-9.24-20.13-3.73C33.6,245.74,49.63,257.53,60,253.31Z" style="fill:#B0BEC5;stroke:#263238;stroke-linecap:round;stroke-linejoin:round"></path><line x1="59.96" y1="253.31" x2="45.04" y2="244.02" style="fill:none;stroke:#263238;stroke-linecap:round;stroke-linejoin:round;stroke-width:0.5px"></line><line x1="69.37" y1="285.35" x2="59.34" y2="277.51" style="fill:none;stroke:#263238;stroke-linecap:round;stroke-linejoin:round;stroke-width:2px"></line><path d="M62.86,281.18a13.09,13.09,0,0,0-4.61-9.83c-3-2.66-18.64-9.25-20.13-3.73C36.51,273.62,52.54,285.4,62.86,281.18Z" style="fill:#B0BEC5;stroke:#263238;stroke-linecap:round;stroke-linejoin:round"></path><line x1="62.86" y1="281.18" x2="47.95" y2="271.89" style="fill:none;stroke:#263238;stroke-linecap:round;stroke-linejoin:round;stroke-width:0.5px"></line><line x1="61.77" y1="212.44" x2="51.71" y2="204.36" style="fill:none;stroke:#263238;stroke-linecap:round;stroke-linejoin:round;stroke-width:2px"></line><path d="M55.23,208a13.14,13.14,0,0,0-4.62-9.84c-3-2.65-18.64-9.24-20.12-3.73C28.87,200.46,44.9,212.25,55.23,208Z" style="fill:#B0BEC5;stroke:#263238;stroke-linecap:round;stroke-linejoin:round"></path><line x1="55.23" y1="208.03" x2="40.32" y2="198.74" style="fill:none;stroke:#263238;stroke-linecap:round;stroke-linejoin:round;stroke-width:0.5px"></line><line x1="57.62" y1="168.04" x2="46.96" y2="158.88" style="fill:none;stroke:#263238;stroke-linecap:round;stroke-linejoin:round;stroke-width:2px"></line><path d="M50.48,162.55a13.08,13.08,0,0,0-4.61-9.83c-3-2.66-18.64-9.25-20.13-3.74C24.12,155,40.16,166.77,50.48,162.55Z" style="fill:#B0BEC5;stroke:#263238;stroke-linecap:round;stroke-linejoin:round"></path><line x1="50.48" y1="162.55" x2="35.57" y2="153.26" style="fill:none;stroke:#263238;stroke-linecap:round;stroke-linejoin:round;stroke-width:0.5px"></line><line x1="73.18" y1="313.41" x2="82" y2="299.04" style="fill:none;stroke:#263238;stroke-linecap:round;stroke-linejoin:round"></line><path d="M79.31,303.35a13.09,13.09,0,0,1,2.48-10.57c2.36-3.22,16.33-12.9,18.92-7.81C103.53,290.51,90.28,305.35,79.31,303.35Z" style="fill:#B0BEC5;stroke:#263238;stroke-linecap:round;stroke-linejoin:round"></path><line x1="79.31" y1="303.35" x2="92.73" y2="290.52" style="fill:none;stroke:#263238;stroke-linecap:round;stroke-linejoin:round;stroke-width:0.5px"></line><line x1="65.52" y1="240.06" x2="74.34" y2="225.68" style="fill:none;stroke:#263238;stroke-linecap:round;stroke-linejoin:round;stroke-width:2px"></line><path d="M71.65,230a13.14,13.14,0,0,1,2.49-10.58c2.36-3.21,16.33-12.89,18.92-7.8C95.88,217.16,82.62,232,71.65,230Z" style="fill:#B0BEC5;stroke:#263238;stroke-linecap:round;stroke-linejoin:round"></path><line x1="71.65" y1="230" x2="85.08" y2="217.17" style="fill:none;stroke:#263238;stroke-linecap:round;stroke-linejoin:round;stroke-width:0.5px"></line><line x1="62.16" y1="207.83" x2="70.98" y2="193.45" style="fill:none;stroke:#263238;stroke-linecap:round;stroke-linejoin:round;stroke-width:2px"></line><path d="M68.29,197.77a13.11,13.11,0,0,1,2.48-10.58c2.36-3.22,16.33-12.9,18.92-7.81C92.52,184.92,79.26,199.76,68.29,197.77Z" style="fill:#B0BEC5;stroke:#263238;stroke-linecap:round;stroke-linejoin:round"></path><line x1="68.29" y1="197.77" x2="81.71" y2="184.93" style="fill:none;stroke:#263238;stroke-linecap:round;stroke-linejoin:round;stroke-width:0.5px"></line><line x1="57.23" y1="160.57" x2="66.04" y2="146.19" style="fill:none;stroke:#263238;stroke-linecap:round;stroke-linejoin:round;stroke-width:2px"></line><path d="M63.35,150.51a13.14,13.14,0,0,1,2.49-10.58c2.36-3.21,16.33-12.9,18.92-7.8C87.58,137.66,74.33,152.5,63.35,150.51Z" style="fill:#B0BEC5;stroke:#263238;stroke-linecap:round;stroke-linejoin:round"></path><line x1="63.35" y1="150.51" x2="76.78" y2="137.67" style="fill:none;stroke:#263238;stroke-linecap:round;stroke-linejoin:round;stroke-width:0.5px"></line><path d="M53.46,130.35a13.09,13.09,0,0,1,2.48-10.57c2.36-3.22,16.33-12.9,18.92-7.81C77.68,117.51,64.43,132.35,53.46,130.35Z" style="fill:#B0BEC5;stroke:#263238;stroke-linecap:round;stroke-linejoin:round"></path><line x1="53.46" y1="130.35" x2="66.88" y2="117.52" style="fill:none;stroke:#263238;stroke-linecap:round;stroke-linejoin:round;stroke-width:0.5px"></line><path d="M54.23,130.91A13.1,13.1,0,0,1,44,127.33c-2.95-2.69-11.12-17.59-5.78-19.64C44,105.47,57.37,120.2,54.23,130.91Z" style="fill:#B0BEC5;stroke:#263238;stroke-linecap:round;stroke-linejoin:round"></path><line x1="54.23" y1="130.91" x2="42.88" y2="116.21" style="fill:none;stroke:#263238;stroke-linecap:round;stroke-linejoin:round;stroke-width:0.5px"></line><line x1="121.14" y1="165.47" x2="97.26" y2="396.24" style="fill:none;stroke:#263238;stroke-linecap:round;stroke-linejoin:round;stroke-width:2px"></line><line x1="100.74" y1="358.84" x2="92.5" y2="349.46" style="fill:none;stroke:#263238;stroke-linecap:round;stroke-linejoin:round;stroke-width:2px"></line><path d="M95.19,353.77A13.12,13.12,0,0,0,92.7,343.2c-2.37-3.22-16.34-12.89-18.93-7.8C71,340.94,84.22,355.78,95.19,353.77Z" style="fill:#B0BEC5;stroke:#263238;stroke-linecap:round;stroke-linejoin:round"></path><line x1="95.19" y1="353.77" x2="82.51" y2="341.61" style="fill:none;stroke:#263238;stroke-linecap:round;stroke-linejoin:round;stroke-width:0.5px"></line><line x1="108.33" y1="290.65" x2="99.56" y2="281.44" style="fill:none;stroke:#263238;stroke-linecap:round;stroke-linejoin:round;stroke-width:2px"></line><path d="M102.25,285.75a13.12,13.12,0,0,0-2.49-10.57c-2.37-3.22-16.34-12.89-18.93-7.8C78,272.92,91.28,287.75,102.25,285.75Z" style="fill:#B0BEC5;stroke:#263238;stroke-linecap:round;stroke-linejoin:round"></path><line x1="102.25" y1="285.75" x2="89.57" y2="273.59" style="fill:none;stroke:#263238;stroke-linecap:round;stroke-linejoin:round;stroke-width:0.5px"></line><line x1="105.49" y1="323.68" x2="96.66" y2="309.31" style="fill:none;stroke:#263238;stroke-linecap:round;stroke-linejoin:round;stroke-width:2px"></line><path d="M99.36,313.63a13.14,13.14,0,0,0-2.49-10.58c-2.37-3.21-16.34-12.89-18.93-7.79C75.12,300.8,88.38,315.63,99.36,313.63Z" style="fill:#B0BEC5;stroke:#263238;stroke-linecap:round;stroke-linejoin:round"></path><line x1="99.36" y1="313.63" x2="86.68" y2="301.46" style="fill:none;stroke:#263238;stroke-linecap:round;stroke-linejoin:round;stroke-width:0.5px"></line><line x1="113.08" y1="250.53" x2="104.26" y2="236.15" style="fill:none;stroke:#263238;stroke-linecap:round;stroke-linejoin:round"></line><path d="M107,240.47a13.14,13.14,0,0,0-2.49-10.58c-2.37-3.21-16.34-12.88-18.93-7.79C82.71,227.64,96,242.47,107,240.47Z" style="fill:#B0BEC5;stroke:#263238;stroke-linecap:round;stroke-linejoin:round"></path><line x1="106.95" y1="240.47" x2="94.27" y2="228.3" style="fill:none;stroke:#263238;stroke-linecap:round;stroke-linejoin:round;stroke-width:0.5px"></line><line x1="117.21" y1="200.41" x2="108.98" y2="190.67" style="fill:none;stroke:#263238;stroke-linecap:round;stroke-linejoin:round;stroke-width:2px"></line><path d="M111.67,195a13.14,13.14,0,0,0-2.49-10.58c-2.37-3.21-16.34-12.89-18.93-7.79C87.43,182.16,100.69,197,111.67,195Z" style="fill:#B0BEC5;stroke:#263238;stroke-linecap:round;stroke-linejoin:round"></path><line x1="111.67" y1="194.99" x2="98.99" y2="182.82" style="fill:none;stroke:#263238;stroke-linecap:round;stroke-linejoin:round;stroke-width:0.5px"></line><line x1="102.81" y1="347.29" x2="114.4" y2="335.04" style="fill:none;stroke:#263238;stroke-linecap:round;stroke-linejoin:round;stroke-width:2px"></line><path d="M110.88,338.71a13.15,13.15,0,0,1,4.61-9.84c3-2.66,18.64-9.26,20.12-3.74C137.23,331.13,121.21,342.92,110.88,338.71Z" style="fill:#B0BEC5;stroke:#263238;stroke-linecap:round;stroke-linejoin:round"></path><line x1="110.88" y1="338.71" x2="126.66" y2="328.91" style="fill:none;stroke:#263238;stroke-linecap:round;stroke-linejoin:round;stroke-width:0.5px"></line><line x1="110.42" y1="273.93" x2="122.01" y2="261.68" style="fill:none;stroke:#263238;stroke-linecap:round;stroke-linejoin:round;stroke-width:2px"></line><path d="M118.49,265.35a13.15,13.15,0,0,1,4.61-9.84c3-2.66,18.64-9.26,20.13-3.74C144.85,257.77,128.82,269.56,118.49,265.35Z" style="fill:#B0BEC5;stroke:#263238;stroke-linecap:round;stroke-linejoin:round"></path><line x1="118.49" y1="265.35" x2="134.28" y2="255.56" style="fill:none;stroke:#263238;stroke-linecap:round;stroke-linejoin:round;stroke-width:0.5px"></line><line x1="113.77" y1="241.7" x2="125.36" y2="229.44" style="fill:none;stroke:#263238;stroke-linecap:round;stroke-linejoin:round"></line><path d="M121.84,233.11a13.09,13.09,0,0,1,4.61-9.83c3-2.66,18.63-9.26,20.12-3.75C148.19,225.53,132.17,237.33,121.84,233.11Z" style="fill:#B0BEC5;stroke:#263238;stroke-linecap:round;stroke-linejoin:round"></path><line x1="121.84" y1="233.11" x2="137.62" y2="223.32" style="fill:none;stroke:#263238;stroke-linecap:round;stroke-linejoin:round;stroke-width:0.5px"></line><line x1="118.67" y1="194.44" x2="130.26" y2="182.18" style="fill:none;stroke:#263238;stroke-linecap:round;stroke-linejoin:round;stroke-width:2px"></line><path d="M126.74,185.85a13.14,13.14,0,0,1,4.61-9.83c3-2.66,18.64-9.26,20.13-3.75C153.1,178.27,137.07,190.07,126.74,185.85Z" style="fill:#B0BEC5;stroke:#263238;stroke-linecap:round;stroke-linejoin:round"></path><line x1="126.74" y1="185.85" x2="142.52" y2="176.06" style="fill:none;stroke:#263238;stroke-linecap:round;stroke-linejoin:round;stroke-width:0.5px"></line><path d="M121.2,164.09a13.16,13.16,0,0,1,4.61-9.84c3-2.66,18.64-9.25,20.13-3.74C147.56,156.51,131.53,168.3,121.2,164.09Z" style="fill:#B0BEC5;stroke:#263238;stroke-linecap:round;stroke-linejoin:round"></path><line x1="121.2" y1="164.09" x2="136.99" y2="154.3" style="fill:none;stroke:#263238;stroke-linecap:round;stroke-linejoin:round;stroke-width:0.5px"></line><path d="M121.85,164.8a13.15,13.15,0,0,1-9.3-5.62c-2.33-3.24-7.25-19.5-1.61-20.41C117.08,137.79,127.12,155,121.85,164.8Z" style="fill:#B0BEC5;stroke:#263238;stroke-linecap:round;stroke-linejoin:round"></path><line x1="121.85" y1="164.8" x2="113.77" y2="148.07" style="fill:none;stroke:#263238;stroke-linecap:round;stroke-linejoin:round;stroke-width:0.5px"></line><line x1="91.99" y1="65.66" x2="91.92" y2="394.78" style="fill:none;stroke:#263238;stroke-linecap:round;stroke-linejoin:round;stroke-width:2px"></line><line x1="92.23" y1="329.01" x2="81.97" y2="315.63" style="fill:none;stroke:#263238;stroke-linecap:round;stroke-linejoin:round;stroke-width:2px"></line><path d="M85.1,319.64a13.14,13.14,0,0,0-3.57-10.26c-2.69-2.95-17.58-11.13-19.63-5.8C59.66,309.38,74.39,322.77,85.1,319.64Z" style="fill:#B0BEC5;stroke:#263238;stroke-linecap:round;stroke-linejoin:round"></path><line x1="85.1" y1="319.64" x2="71.23" y2="308.85" style="fill:none;stroke:#263238;stroke-linecap:round;stroke-linejoin:round;stroke-width:0.5px"></line><line x1="91.86" y1="266.02" x2="81.97" y2="257.38" style="fill:none;stroke:#263238;stroke-linecap:round;stroke-linejoin:round;stroke-width:2px"></line><path d="M85.1,261.39a13.14,13.14,0,0,0-3.57-10.26C78.84,248.18,64,240,61.9,245.33,59.66,251.13,74.39,264.52,85.1,261.39Z" style="fill:#B0BEC5;stroke:#263238;stroke-linecap:round;stroke-linejoin:round"></path><line x1="85.1" y1="261.39" x2="71.23" y2="250.6" style="fill:none;stroke:#263238;stroke-linecap:round;stroke-linejoin:round;stroke-width:0.5px"></line><line x1="92.23" y1="202.38" x2="81.97" y2="188.99" style="fill:none;stroke:#263238;stroke-linecap:round;stroke-linejoin:round"></line><path d="M85.1,193a13.16,13.16,0,0,0-3.57-10.27c-2.69-3-17.58-11.13-19.63-5.8C59.66,182.74,74.39,196.13,85.1,193Z" style="fill:#B0BEC5;stroke:#263238;stroke-linecap:round;stroke-linejoin:round"></path><line x1="85.1" y1="193.01" x2="71.23" y2="182.22" style="fill:none;stroke:#263238;stroke-linecap:round;stroke-linejoin:round;stroke-width:0.5px"></line><line x1="91.57" y1="154.43" x2="81.97" y2="143.47" style="fill:none;stroke:#263238;stroke-linecap:round;stroke-linejoin:round;stroke-width:2px"></line><path d="M85.1,147.48a13.14,13.14,0,0,0-3.57-10.26c-2.69-2.95-17.58-11.13-19.63-5.8C59.66,137.22,74.39,150.6,85.1,147.48Z" style="fill:#B0BEC5;stroke:#263238;stroke-linecap:round;stroke-linejoin:round"></path><line x1="85.1" y1="147.48" x2="71.23" y2="136.69" style="fill:none;stroke:#263238;stroke-linecap:round;stroke-linejoin:round;stroke-width:0.5px"></line><line x1="91.86" y1="107.73" x2="81.97" y2="97.74" style="fill:none;stroke:#263238;stroke-linecap:round;stroke-linejoin:round;stroke-width:2px"></line><path d="M85.1,101.76a13.16,13.16,0,0,0-3.57-10.27C78.84,88.54,64,80.36,61.9,85.69,59.66,91.49,74.39,104.88,85.1,101.76Z" style="fill:#B0BEC5;stroke:#263238;stroke-linecap:round;stroke-linejoin:round"></path><line x1="85.1" y1="101.76" x2="71.23" y2="90.97" style="fill:none;stroke:#263238;stroke-linecap:round;stroke-linejoin:round;stroke-width:0.5px"></line><line x1="92.01" y1="346.8" x2="102.27" y2="333.41" style="fill:none;stroke:#263238;stroke-linecap:round;stroke-linejoin:round;stroke-width:2px"></line><path d="M99.15,337.43a13.14,13.14,0,0,1,3.57-10.26c2.68-2.95,17.58-11.13,19.63-5.8C124.58,327.17,109.86,340.55,99.15,337.43Z" style="fill:#B0BEC5;stroke:#263238;stroke-linecap:round;stroke-linejoin:round"></path><line x1="99.15" y1="337.43" x2="113.84" y2="326.06" style="fill:none;stroke:#263238;stroke-linecap:round;stroke-linejoin:round;stroke-width:0.5px"></line><line x1="92.01" y1="254.16" x2="102.27" y2="240.77" style="fill:none;stroke:#263238;stroke-linecap:round;stroke-linejoin:round;stroke-width:2px"></line><path d="M99.15,244.79a13.13,13.13,0,0,1,3.57-10.26c2.68-3,17.58-11.14,19.63-5.8C124.58,234.53,109.86,247.91,99.15,244.79Z" style="fill:#B0BEC5;stroke:#263238;stroke-linecap:round;stroke-linejoin:round"></path><line x1="99.15" y1="244.79" x2="113.84" y2="233.42" style="fill:none;stroke:#263238;stroke-linecap:round;stroke-linejoin:round;stroke-width:0.5px"></line><line x1="92.01" y1="208.43" x2="102.27" y2="195.05" style="fill:none;stroke:#263238;stroke-linecap:round;stroke-linejoin:round;stroke-width:2px"></line><path d="M99.15,199.06a13.14,13.14,0,0,1,3.57-10.26c2.68-3,17.58-11.13,19.63-5.8C124.58,188.8,109.86,202.19,99.15,199.06Z" style="fill:#B0BEC5;stroke:#263238;stroke-linecap:round;stroke-linejoin:round"></path><line x1="99.15" y1="199.06" x2="113.84" y2="187.69" style="fill:none;stroke:#263238;stroke-linecap:round;stroke-linejoin:round;stroke-width:0.5px"></line><line x1="92.01" y1="148" x2="102.27" y2="134.61" style="fill:none;stroke:#263238;stroke-linecap:round;stroke-linejoin:round;stroke-width:2px"></line><path d="M99.15,138.63a13.13,13.13,0,0,1,3.57-10.26c2.68-3,17.58-11.14,19.63-5.8C124.58,128.37,109.86,141.75,99.15,138.63Z" style="fill:#B0BEC5;stroke:#263238;stroke-linecap:round;stroke-linejoin:round"></path><line x1="99.15" y1="138.63" x2="113.84" y2="127.26" style="fill:none;stroke:#263238;stroke-linecap:round;stroke-linejoin:round;stroke-width:0.5px"></line><line x1="92.01" y1="100.48" x2="102.27" y2="87.1" style="fill:none;stroke:#263238;stroke-linecap:round;stroke-linejoin:round;stroke-width:2px"></line><path d="M99.15,91.11a13.14,13.14,0,0,1,3.57-10.26c2.68-2.95,17.58-11.13,19.63-5.8C124.58,80.85,109.86,94.24,99.15,91.11Z" style="fill:#B0BEC5;stroke:#263238;stroke-linecap:round;stroke-linejoin:round"></path><line x1="99.15" y1="91.11" x2="113.84" y2="79.74" style="fill:none;stroke:#263238;stroke-linecap:round;stroke-linejoin:round;stroke-width:0.5px"></line><path d="M91.39,70A13.14,13.14,0,0,1,95,59.78c2.69-3,17.58-11.13,19.63-5.8C116.83,59.78,102.1,73.16,91.39,70Z" style="fill:#B0BEC5;stroke:#263238;stroke-linecap:round;stroke-linejoin:round"></path><line x1="91.39" y1="70.04" x2="106.08" y2="58.67" style="fill:none;stroke:#263238;stroke-linecap:round;stroke-linejoin:round;stroke-width:0.5px"></line><path d="M92.11,70.67a13.11,13.11,0,0,1-9.83-4.62c-2.66-3-9.23-18.65-3.71-20.13C84.57,44.31,96.34,60.35,92.11,70.67Z" style="fill:#B0BEC5;stroke:#263238;stroke-linecap:round;stroke-linejoin:round"></path><line x1="92.11" y1="70.67" x2="82.34" y2="54.87" style="fill:none;stroke:#263238;stroke-linecap:round;stroke-linejoin:round;stroke-width:0.5px"></line><path d="M47,397.28l-8.79-18.61,15.51,8.79L42.82,359,63,383.32V368.85l5.68,10.34L74.36,358l6.72,21.2,8.79-15.51v16.54L98.66,372l-1.55,12.93,17.58-17.58-8.27,16s7.75-5.17,9.82-6.72,12.41-6.72,12.41-6.72l-11.89,16,9.82-.52-3.1,5.69,16-3.1-12.92,9.82,20.68,3.1L111.59,405l16,4.65-69.79,1,17.67-7.21-47.66,4.62,13.44-5.69-18.09-.51Z" style="fill:#B0BEC5;stroke:#263238;stroke-linecap:round;stroke-linejoin:round"></path></g><g id="freepik--Chicken--inject-5"><path d="M300.58,342.51s-7.28,30.52-9.8,35.28a66.58,66.58,0,0,1-3.92,6.72s-14,5.59-28.27,9.51-21.28,4.2-22.12,9.24,1.68,7.56,8.68,6.72,13.16-6.16,20.16-9.24,13.43-5.6,13.43-5.6-2.52,4.48-10.92,9.52S251,415,253.27,418.66a7.68,7.68,0,0,0,10.64,2.8c4.19-2.24,23.23-24.92,28.83-27.72s13.44-3.92,17.64-5,7-5.31,3.63-7.27-5-1.68-8.39-.56a48.55,48.55,0,0,1-7.28,1.68l13.16-39.76Z" style="fill:#263238;stroke:#263238;stroke-miterlimit:10"></path><path d="M353.49,343.35l10.91,39.48s-9.79-6.44-12.87-3.36-5.32,9.51-.56,10.91,11.75,2.8,16.23,7.84,3.08,22.68,7.56,28,14,5,17.36.84S384,414.18,382,409.42s-4.2-10.08-4.2-10.08,3.36-.84,15.68,8.4,18.19,13.72,24.07,12.6,4.76-10.64-.56-14.28-27.43-12.32-32.19-14.56a112,112,0,0,1-10.08-5.59l-11.48-42.84Z" style="fill:#263238;stroke:#263238;stroke-miterlimit:10"></path><path d="M243.25,183.41s-5.79-13.91-25.49-17.77-32-1.16-25.87,9.27,27,16.22,27,16.22-29.74-3.86-30.51.77,6.18,5.8,16.22,4.64,15.06-2.32,15.06-2.32-18.92,9.66-24.71,30.51,1.54,39.78,7.72,53.3,24,22.78,38.62,35.91,29.16,30.7,61.22,34.17,38.81-6.75,38.81-6.75,13.51,10.82,24.71,6.57,10.82-28.58,10.82-28.58,22.4-20.47,28.58-41.71,5-62.56-3.48-81.49-17.76-49.82-22.79-42.87-2.7,13.13-3.86,14.68-7.34-24-12.74-27-5.8,7.73-5.8,7.73-2.31-6.18-6.17-1.55-4.25,12-14.68,20.47-38.23,21.63-43.25,22l-5,.38S267.58,175.68,243.25,183.41Z" style="fill:#B0BEC5;stroke:#263238;stroke-miterlimit:10"></path><path d="M245.66,252.68c1.07,4.2.35,8-1.6,8.49s-4.39-2.5-5.45-6.7-.35-8,1.6-8.49S244.6,248.49,245.66,252.68Z" style="fill:#263238;stroke:#263238;stroke-miterlimit:10"></path><path d="M205.77,253c1,3.77.31,7.19-1.44,7.64s-4-2.26-4.9-6-.32-7.2,1.44-7.64S204.81,249.2,205.77,253Z" style="fill:#263238;stroke:#263238;stroke-miterlimit:10"></path><path d="M271.56,264.63c1.91,4.88-2.38,11.13-9.58,13.95s-14.6,1.16-16.52-3.73,2.38-11.13,9.58-14S269.64,259.74,271.56,264.63Z" style="fill:#fff"></path><ellipse cx="294.98" cy="318.72" rx="24.63" ry="49.83" transform="translate(-95.35 509.08) rotate(-73.21)" style="fill:#fff"></ellipse><path d="M308.39,209.71a29,29,0,0,1,2.45,8.07" style="fill:none;stroke:#263238;stroke-miterlimit:10"></path><path d="M287.66,190a49.87,49.87,0,0,1,17.19,13.91" style="fill:none;stroke:#263238;stroke-miterlimit:10"></path><path d="M356.79,148.65s.72,8.47-5.09,21.76" style="fill:none;stroke:#263238;stroke-miterlimit:10"></path><path d="M349.62,174.15s-2.91,3.74-4.57,6.23" style="fill:none;stroke:#263238;stroke-miterlimit:10"></path><ellipse cx="171.92" cy="405.05" rx="21.48" ry="5.73" style="fill:#263238;stroke:#263238;stroke-miterlimit:10"></ellipse><path d="M171.92,410.77a70.14,70.14,0,0,0,11.7-.92l30.67-129.12L206.52,286l-34.93,124.8Z" style="fill:#fff;stroke:#263238;stroke-miterlimit:10"></path><path d="M202.91,299.41a4.83,4.83,0,0,1,6.51,1.9" style="fill:none;stroke:#263238;stroke-miterlimit:10"></path><path d="M198.29,316s4.89-1.9,7.33,1.63" style="fill:none;stroke:#263238;stroke-miterlimit:10"></path><path d="M194.49,331.45s5.7-.54,6.79,1.9" style="fill:none;stroke:#263238;stroke-miterlimit:10"></path><path d="M189.6,347.47s6-3,8.69,2.18" style="fill:none;stroke:#263238;stroke-miterlimit:10"></path><path d="M185.53,361.87s5.43-1.36,9,1.9" style="fill:none;stroke:#263238;stroke-miterlimit:10"></path><path d="M180.64,380.61s6-1.36,9,2.17" style="fill:none;stroke:#263238;stroke-miterlimit:10"></path><path d="M176,396.08s7.06-.81,9.51,1.91" style="fill:none;stroke:#263238;stroke-miterlimit:10"></path><path d="M210,295.41s15.06-3.09,20.08-10.82,4.25-14.29,4.25-14.29Z" style="fill:#bdbdbd;stroke:#263238;stroke-miterlimit:10"></path><path d="M214.29,280.73S205,295.41,210,295.41s24.33-25.11,24.33-25.11S217.76,276.48,214.29,280.73Z" style="fill:#263238;stroke:#263238;stroke-miterlimit:10"></path><path d="M212.4,283.45s3.36-2.52,6.44,1.4,9.51,15.39,17.35,17.91,11.2-5.88,6.44-12.87-18.2-13.16-22.12-13.16S212.4,283.45,212.4,283.45Z" style="fill:#fff;stroke:#263238;stroke-miterlimit:10"></path><path d="M226,294.25s.81-11.14,11.4-9.78" style="fill:none;stroke:#263238;stroke-miterlimit:10"></path><path d="M219.46,285.84s.54-5.29,7.73-6.92" style="fill:none;stroke:#263238;stroke-miterlimit:10"></path><path d="M234.37,270.3s-10.43-8.11-20.86-6.18-15.44,21.24-14.67,24.72,15.83-6.18,25.1-10.43S234.37,270.3,234.37,270.3Z" style="fill:#bdbdbd;stroke:#263238;stroke-miterlimit:10"></path><path d="M341.31,220.27s4.15-7.48,8.72-7.48c3.25,0,6,5,6,5s12.23-17.22,16.86-14.13a8.13,8.13,0,0,1,3.87,7.72s3.22-20.24,10.94-17.54,12.36,34.38,6.18,60.25-15.06,34.76-35.53,38.62-40.94-14.29-40.17-27" style="fill:#B0BEC5;stroke:#263238;stroke-miterlimit:10"></path><path d="M366.7,221.46c4.83-4.21,10.13-8.05,12-6.59,3.74,2.9.83,12,.83,12s9.56-8.31,10.8-1.66" style="fill:none;stroke:#263238;stroke-miterlimit:10"></path><path d="M341.72,233.56s9.9-17.44,13.47-12.46,2.32,9.14,2.32,9.14,2.86-3,6.5-6.36" style="fill:none;stroke:#263238;stroke-miterlimit:10"></path></g></svg>
